<?xml version="1.0" encoding="UTF-8" standalone="no"?>
<svg
   xmlns:dc="http://purl.org/dc/elements/1.1/"
   xmlns:cc="http://creativecommons.org/ns#"
   xmlns:rdf="http://www.w3.org/1999/02/22-rdf-syntax-ns#"
   xmlns:svg="http://www.w3.org/2000/svg"
   xmlns="http://www.w3.org/2000/svg"
   xmlns:sodipodi="http://sodipodi.sourceforge.net/DTD/sodipodi-0.dtd"
   xmlns:inkscape="http://www.inkscape.org/namespaces/inkscape"
   version="1.1"
   id="svg833"
   xml:space="preserve"
   width="553.60742"
   height="291.15485"
   viewBox="0 0 1162.5756 611.42518"
   sodipodi:docname="footer.svg"
   inkscape:version="1.0 (4035a4f, 2020-05-01)"><metadata
     id="metadata839"><rdf:RDF><cc:Work
         rdf:about=""><dc:format>image/svg+xml</dc:format><dc:type
           rdf:resource="http://purl.org/dc/dcmitype/StillImage" /><dc:title></dc:title></cc:Work></rdf:RDF></metadata><defs
     id="defs837"><clipPath
       clipPathUnits="userSpaceOnUse"
       id="clipPath849"><path
         d="M 18.827,18.827 H 288.118 V 203.079 H 18.827 Z"
         id="path847" /></clipPath></defs><sodipodi:namedview
     inkscape:document-rotation="0"
     pagecolor="#ffffff"
     bordercolor="#666666"
     borderopacity="1"
     objecttolerance="10"
     gridtolerance="10"
     guidetolerance="10"
     inkscape:pageopacity="0"
     inkscape:pageshadow="2"
     inkscape:window-width="1680"
     inkscape:window-height="997"
     id="namedview835"
     showgrid="false"
     fit-margin-top="5"
     fit-margin-left="0"
     fit-margin-right="0"
     fit-margin-bottom="50"
     lock-margins="true"
     units="in"
     inkscape:zoom="1.5100425"
     inkscape:cx="266.53422"
     inkscape:cy="71.027482"
     inkscape:window-x="0"
     inkscape:window-y="25"
     inkscape:window-maximized="1"
     inkscape:current-layer="g855" /><g
     id="g841"
     inkscape:groupmode="layer"
     inkscape:label="BC-VladTopala-85x55mm"
     transform="matrix(1.3333333,0,0,-1.3333333,196.89177,272.41807)"><g
       clip-path="url(#clipPath849)"
       id="g845"
       transform="matrix(3.2378791,0,0,3.2378791,-208.62838,-236.46491)"><g
         transform="translate(302.9017,-12.1051)"
         id="g851"><path
           id="path853"
           style="fill:#50baab;fill-opacity:1;fill-rule:nonzero;stroke:none"
           d="m 0,0 h -326.555 v 72.986 c 35.312,19.122 62.381,20.752 80.982,18.396 26.269,-3.328 36.799,-14.751 63.214,-10.37 19.842,3.29 25.403,11.644 46.556,11.306 17.979,-0.287 19.19,-6.406 37.244,-6.651 22.791,-0.309 29.305,9.327 47.221,9.977 C -39.405,96.076 -21.96,92.538 0,72.986 Z" /></g><g
         transform="translate(188.4134,111.8863)"
         id="g855"><path
           id="path857"
           style="fill:#1c2e54;fill-opacity:1;fill-rule:nonzero;stroke:none"
           d="m -0.97285909,0 c 0.021,5.868 2.09899999,11.704 6.01099999,16.876 0.642,0.849 1.85,1.014 2.698,0.374 0.848,-0.642 1.015,-1.849 0.374,-2.698 -2.375,-3.139 -5.209,-8.213 -5.232,-14.567 -0.023,-6.419 2.832,-11.546 5.232,-14.718 0.641,-0.849 0.474,-2.056 -0.374,-2.698 -0.348,-0.263 -0.756,-0.39 -1.161,-0.39 -0.583,0 -1.158,0.263 -1.537,0.764 -2.757,3.645 -6.03799999,9.563 -6.01099999,17.057" /></g><g
         transform="translate(228.44394,94.0655)"
         id="g859"><path
           id="path861"
           style="fill:#1c2e54;fill-opacity:1;fill-rule:nonzero;stroke:none"
           d="m 0,0 c -0.405,0 -0.813,0.127 -1.161,0.39 -0.848,0.642 -1.015,1.849 -0.374,2.698 2.375,3.139 5.209,8.213 5.232,14.566 0.023,6.419 -2.832,11.547 -5.232,14.718 -0.641,0.849 -0.474,2.056 0.374,2.698 0.849,0.642 2.056,0.475 2.698,-0.374 C 4.294,31.051 7.575,25.134 7.548,17.639 7.527,11.771 5.449,5.935 1.537,0.764 1.158,0.263 0.582,0 0,0" /></g><g
         transform="translate(213.16314,115.865)"
         id="g863"><path
           id="path865"
           style="fill:#1c2e54;fill-opacity:1;fill-rule:nonzero;stroke:none"
           d="m 0,0 c 0,-3.589 1.43,-6.499 3.194,-6.499 1.765,0 3.195,2.91 3.195,6.499 0,3.589 -1.43,6.499 -3.195,6.499 C 1.43,6.499 0,3.589 0,0" /></g><g
         transform="translate(240.40734,105.08)"
         id="g867"><path
           id="path869"
           style="fill:#1c2e54;fill-opacity:1;fill-rule:nonzero;stroke:none"
           d="m 0,0 c -0.666,0 -1.313,0.345 -1.669,0.963 -0.532,0.921 -0.216,2.099 0.704,2.63 l 5.407,3.122 -5.407,3.122 c -0.92,0.531 -1.236,1.709 -0.704,2.629 0.53,0.922 1.707,1.238 2.63,0.706 L 9.256,8.382 C 9.852,8.039 10.219,7.403 10.219,6.715 10.219,6.027 9.852,5.391 9.256,5.047 L 0.961,0.258 C 0.658,0.083 0.326,0 0,0" /></g><g
         transform="translate(218.82644,129.8487)"
         id="g871"><path
           id="path873"
           style="fill:#1c2e54;fill-opacity:1;fill-rule:nonzero;stroke:none"
           d="m 0,0 h -15.602 c -1.063,0 -1.925,0.862 -1.925,1.926 0,1.063 0.862,1.925 1.925,1.925 H 0 C 1.063,3.851 1.926,2.989 1.926,1.926 1.926,0.862 1.063,0 0,0" /></g><g
         transform="translate(160.88744,90.5923)"
         id="g875"><path
           id="path877"
           style="fill:#1c2e54;fill-opacity:1;fill-rule:nonzero;stroke:none"
           d="m 0,0 c -1.063,0 -1.926,0.862 -1.926,1.926 v 12.365 c 0,0.798 0.492,1.513 1.237,1.798 0.745,0.288 1.588,0.083 2.121,-0.511 L 10.854,5.096 C 11.565,4.304 11.501,3.088 10.709,2.376 9.919,1.666 8.701,1.731 7.99,2.521 L 1.926,9.268 V 1.926 C 1.926,0.862 1.063,0 0,0" /></g><g
         transform="translate(195.02544,88.6106)"
         id="g879"><path
           id="path881"
           style="fill:#1c2e54;fill-opacity:1;fill-rule:nonzero;stroke:none"
           d="m 0,0 h -18.748 c -1.034,0 -1.871,0.837 -1.871,1.871 0,1.034 0.837,1.872 1.871,1.872 L 0,3.743 C 1.034,3.743 1.871,2.905 1.871,1.871 1.871,0.837 1.034,0 0,0" /></g><g
         transform="translate(212.91534,58.2925)"
         id="g883"><path
           id="path885"
           style="fill:#1c2e54;fill-opacity:1;fill-rule:nonzero;stroke:none"
           d="m 0,0 h -27.801 c -14.42,0 -26.153,11.732 -26.153,26.151 v 2.226 c 0,1.034 0.838,1.871 1.872,1.871 1.034,0 1.871,-0.837 1.871,-1.871 v -2.226 c 0,-12.357 10.053,-22.408 22.41,-22.408 L 0,3.743 c 7.958,0 14.431,6.473 14.431,14.431 v 12.87 c 0,1.034 0.837,1.872 1.871,1.872 1.034,0 1.872,-0.838 1.872,-1.872 V 18.174 C 18.174,8.154 10.021,0 0,0" /></g><g
         transform="translate(206.42444,79.584)"
         id="g887"><path
           id="path889"
           style="fill:#1c2e54;fill-opacity:1;fill-rule:nonzero;stroke:none"
           d="m 0,0 h -14.247 c -1.034,0 -1.871,0.837 -1.871,1.871 0,1.034 0.837,1.872 1.871,1.872 L 0,3.743 C 1.034,3.743 1.871,2.905 1.871,1.871 1.871,0.837 1.034,0 0,0" /></g><g
         transform="translate(204.03774,73.5007)"
         id="g891"><path
           id="path893"
           style="fill:#1c2e54;fill-opacity:1;fill-rule:nonzero;stroke:none"
           d="m 0,0 h -14.249 c -1.034,0 -1.871,0.837 -1.871,1.871 0,1.034 0.837,1.872 1.871,1.872 L 0,3.743 C 1.034,3.743 1.871,2.905 1.871,1.871 1.871,0.837 1.034,0 0,0" /></g><g
         transform="translate(201.29904,68.2484)"
         id="g895"><path
           id="path897"
           style="fill:#1c2e54;fill-opacity:1;fill-rule:nonzero;stroke:none"
           d="m 0,0 h -14.247 c -1.034,0 -1.871,0.837 -1.871,1.871 0,1.034 0.837,1.872 1.871,1.872 L 0,3.743 C 1.034,3.743 1.871,2.905 1.871,1.871 1.871,0.837 1.034,0 0,0" /></g><g
         transform="translate(317.9037,-21.427)"
         id="g899"><path
           id="path901"
           style="fill:#79c6bb;fill-opacity:1;fill-rule:nonzero;stroke:none"
           d="m 0,0 h -326.555 v 72.986 c 35.312,19.122 62.381,20.752 80.982,18.396 26.269,-3.328 36.799,-14.751 63.214,-10.37 19.842,3.29 25.403,11.644 46.556,11.306 17.979,-0.287 19.19,-6.406 37.244,-6.651 22.791,-0.309 29.305,9.327 47.221,9.977 C -39.405,96.076 -21.961,92.538 0,72.986 Z" /></g><g
         transform="translate(289.825,-33.5846)"
         id="g903"><path
           id="path905"
           style="fill:#9ed3cb;fill-opacity:1;fill-rule:nonzero;stroke:none"
           d="m 0,0 h -326.555 v 72.986 c 35.312,19.122 62.381,20.752 80.982,18.396 26.269,-3.328 36.799,-14.751 63.214,-10.37 19.842,3.29 25.403,11.644 46.556,11.306 17.979,-0.287 19.19,-6.406 37.244,-6.651 22.791,-0.309 29.305,9.327 47.221,9.977 C -39.405,96.076 -21.96,92.538 0,72.986 Z" /></g></g><text
       xml:space="preserve"
       style="font-style:normal;font-weight:normal;font-size:97.1364px;line-height:1.25;font-family:sans-serif;fill:#000000;fill-opacity:1;stroke:none;stroke-width:2.42841"
       x="-313.76904"
       y="-57.428913"
       id="text935"
       transform="scale(1,-1)"><tspan
         sodipodi:role="line"
         id="tspan933"
         x="-313.76904"
         y="-57.428913"
         style="stroke-width:2.42841" /></text></g></svg>
