<?xml version="1.0" encoding="UTF-8" standalone="no"?>
<svg
   xmlns:dc="http://purl.org/dc/elements/1.1/"
   xmlns:cc="http://creativecommons.org/ns#"
   xmlns:rdf="http://www.w3.org/1999/02/22-rdf-syntax-ns#"
   xmlns:svg="http://www.w3.org/2000/svg"
   xmlns="http://www.w3.org/2000/svg"
   xmlns:sodipodi="http://sodipodi.sourceforge.net/DTD/sodipodi-0.dtd"
   xmlns:inkscape="http://www.inkscape.org/namespaces/inkscape"
   inkscape:version="1.0 (4035a4f, 2020-05-01)"
   sodipodi:docname="RubberDuck-RGB_Color-full-width.svg"
   version="1.1"
   viewBox="0 0 1000 377.47"
   data-name="Layer 1"
   id="Layer_1">
  <metadata
     id="metadata884">
    <rdf:RDF>
      <cc:Work
         rdf:about="">
        <dc:format>image/svg+xml</dc:format>
        <dc:type
           rdf:resource="http://purl.org/dc/dcmitype/StillImage" />
        <dc:title></dc:title>
      </cc:Work>
    </rdf:RDF>
  </metadata>
  <sodipodi:namedview
     inkscape:current-layer="Layer_1"
     inkscape:window-maximized="1"
     inkscape:window-y="25"
     inkscape:window-x="0"
     inkscape:cy="188.735"
     inkscape:cx="500"
     inkscape:zoom="0.618"
     showgrid="false"
     id="namedview882"
     inkscape:window-height="997"
     inkscape:window-width="1680"
     inkscape:pageshadow="2"
     inkscape:pageopacity="0"
     guidetolerance="10"
     gridtolerance="10"
     objecttolerance="10"
     borderopacity="1"
     bordercolor="#666666"
     pagecolor="#ffffff" />
  <defs
     id="defs835">
    <style
       id="style833">.cls-1{fill:#1b2d54;}.cls-2{fill:#51b8ab;}.cls-3{fill:#fff;}</style>
  </defs>
  <path
     style="stroke-width:1.21562"
     id="path837"
     d="m 211.34662,157.98414 a 14.16195,14.16195 0 0 1 0.778,-4.95974 10.782532,10.782532 0 0 1 2.03008,-3.4645 8.5093262,8.5093262 0 0 1 2.86886,-2.09086 13.201612,13.201612 0 0 1 3.3794,-0.96034 c 0.8631,-0.17018 1.89638,-0.35254 3.06336,-0.52272 1.167,-0.17018 2.66222,-0.32822 4.44916,-0.46194 1.78696,-0.13372 3.95076,-0.23096 6.52788,-0.31606 2.5771,-0.085 5.67694,-0.13372 9.33594,-0.13372 a 64.525006,64.525006 0 0 1 19.58362,2.54064 34.535708,34.535708 0 0 1 12.60594,6.8561 24.579796,24.579796 0 0 1 6.78316,9.85866 33.502434,33.502434 0 0 1 2.03008,11.56052 30.730824,30.730824 0 0 1 -3.27002,14.29568 25.005264,25.005264 0 0 1 -10.70958,10.38138 c 1.31286,2.09086 2.74728,4.5221 4.31544,7.2937 1.56814,2.7716 3.19708,5.72556 4.86246,8.80108 1.6654,3.0755 3.36728,6.2969 5.02052,9.60338 1.65324,3.30648 3.22138,6.52786 4.70444,9.66416 h -24.95664 c -0.43762,-0.96034 -1.21562,-2.75946 -2.43124,-5.42166 -1.21562,-2.6622 -2.51634,-5.53106 -4.048,-8.61872 -1.53168,-3.08768 -3.08768,-6.0781 -4.6923,-9.06852 -1.60462,-2.99042 -2.99042,-5.26362 -4.12094,-6.92902 a 25.041732,25.041732 0 0 1 -3.7198,0.26744 h -3.97506 c -0.52272,0 -1.21562,0 -2.1638,-0.0608 l -2.80808,-0.13372 -2.60142,-0.13372 a 7.6705498,7.6705498 0 0 1 -1.56814,-0.1945 v 30.2932 h -21.27332 z m 21.28546,29.17482 a 6.6615868,6.6615868 0 0 1 1.10622,0.12156 c 0.47408,0.0972 1.15484,0.18234 2.01792,0.26744 0.8631,0.0851 1.98146,0.14588 3.3308,0.1945 1.34934,0.0486 3.02688,0.0608 5.03266,0.0608 a 36.237574,36.237574 0 0 0 9.20222,-0.9725 15.292474,15.292474 0 0 0 5.61616,-2.63788 8.1689532,8.1689532 0 0 0 2.7473,-3.79274 13.870202,13.870202 0 0 0 0.71722,-4.37622 14.453698,14.453698 0 0 0 -0.65644,-4.23034 8.825387,8.825387 0 0 0 -2.67436,-3.98724 15.462662,15.462662 0 0 0 -5.84712,-3.06336 34.669426,34.669426 0 0 0 -10.05316,-1.21562 q -4.57072,0 -7.29372,0.1945 c -1.78696,0.13372 -2.90532,0.24314 -3.33078,0.32822 z"
     class="cls-1" />
  <path
     style="stroke-width:1.21562"
     id="path839"
     d="m 319.19624,204.85836 q 0,13.57846 12.27774,13.59062 12.27776,0.0122 12.27776,-13.59062 v -26.2452 q 0,-5.08128 3.00256,-7.17214 a 13.65139,13.65139 0 0 1 7.9623,-2.09086 22.391684,22.391684 0 0 1 6.40632,0.85094 c 1.90852,0.55918 3.12414,0.93602 3.64684,1.1062 v 37.4775 a 29.575986,29.575986 0 0 1 -2.54064,12.72753 25.163294,25.163294 0 0 1 -6.9898,9.00773 30.244576,30.244576 0 0 1 -10.57588,5.42166 48.30866,48.30866 0 0 1 -26.3789,0 30.463388,30.463388 0 0 1 -10.57588,-5.42166 25.309168,25.309168 0 0 1 -6.9898,-9.00773 29.75833,29.75833 0 0 1 -2.51634,-12.72753 v -30.17164 q 0,-5.08128 3.00258,-7.17214 a 13.65139,13.65139 0 0 1 7.9623,-2.09086 22.391684,22.391684 0 0 1 6.4063,0.85094 c 1.90852,0.55918 3.12414,0.93602 3.64686,1.1062 z"
     class="cls-1" />
  <path
     style="stroke-width:1.21562"
     id="path841"
     d="m 377.57022,148.93994 q 0,-5.0813 3.00258,-7.1843 a 13.74864,13.74864 0 0 1 7.9623,-2.09088 22.063468,22.063468 0 0 1 6.33336,0.85094 l 3.64686,1.10622 v 33.0405 a 28.396838,28.396838 0 0 1 7.11136,-4.76524 26.743596,26.743596 0 0 1 12.08326,-2.43122 31.107666,31.107666 0 0 1 12.53302,2.55278 31.423726,31.423726 0 0 1 10.24766,7.11138 33.344402,33.344402 0 0 1 6.91686,11.0378 38.899778,38.899778 0 0 1 2.5528,14.4294 36.541478,36.541478 0 0 1 -2.79592,14.41722 31.995066,31.995066 0 0 1 -7.5733,11.0986 34.487084,34.487084 0 0 1 -11.42682,7.12352 39.458962,39.458962 0 0 1 -14.29566,2.5528 41.999604,41.999604 0 0 1 -17.10374,-3.40374 31.606068,31.606068 0 0 1 -12.66674,-9.91944 30.524168,30.524168 0 0 1 -4.86248,-10.3206 54.240876,54.240876 0 0 1 -1.70186,-14.49016 z m 35.77564,69.47256 a 14.47801,14.47801 0 0 0 10.77038,-4.31544 15.474818,15.474818 0 0 0 4.25466,-11.35388 16.16772,16.16772 0 0 0 -4.25466,-11.56052 14.149794,14.149794 0 0 0 -10.77038,-4.50994 14.429386,14.429386 0 0 0 -6.00514,1.21562 14.952102,14.952102 0 0 0 -7.90152,8.50932 17.748024,17.748024 0 0 0 -1.10622,6.33338 q 0,7.2937 4.2425,11.48758 a 14.73329,14.73329 0 0 0 10.77038,4.23036 z"
     class="cls-1" />
  <path
     style="stroke-width:1.21562"
     id="path843"
     d="m 460.09854,148.93994 q 0,-5.0813 3.00258,-7.1843 a 13.724328,13.724328 0 0 1 7.96228,-2.09088 22.124248,22.124248 0 0 1 6.33338,0.85094 l 3.58608,1.10622 v 33.0405 a 28.275276,28.275276 0 0 1 7.12352,-4.76524 26.67066,26.67066 0 0 1 12.07108,-2.43122 31.35079,31.35079 0 0 1 22.79284,9.66416 33.344402,33.344402 0 0 1 6.91686,11.0378 38.899778,38.899778 0 0 1 2.5528,14.4294 36.76029,36.76029 0 0 1 -2.7473,14.41722 31.995066,31.995066 0 0 1 -7.5733,11.0986 34.487084,34.487084 0 0 1 -11.4268,7.12352 39.55621,39.55621 0 0 1 -14.29568,2.5528 41.963134,41.963134 0 0 1 -17.10374,-3.40374 31.606068,31.606068 0 0 1 -12.66674,-9.91944 30.536326,30.536326 0 0 1 -4.86246,-10.3206 54.775748,54.775748 0 0 1 -1.68972,-14.49016 z m 35.77564,69.47256 a 14.502324,14.502324 0 0 0 10.77036,-4.31544 15.462662,15.462662 0 0 0 4.24252,-11.35388 16.16772,16.16772 0 0 0 -4.24252,-11.56052 14.16195,14.16195 0 0 0 -10.77036,-4.50994 14.392918,14.392918 0 0 0 -6.00516,1.21562 15.037196,15.037196 0 0 0 -4.76522,3.40372 15.207382,15.207382 0 0 0 -3.1363,5.09344 17.748024,17.748024 0 0 0 -1.10622,6.33338 q 0,7.2937 4.24252,11.48758 a 14.708978,14.708978 0 0 0 10.77038,4.24252 z"
     class="cls-1" />
  <path
     style="stroke-width:1.21562"
     id="path845"
     d="m 563.90016,211.39838 a 7.2937082,7.2937082 0 0 0 1.37364,3.06336 11.74287,11.74287 0 0 0 3.1363,2.80808 17.018652,17.018652 0 0 0 5.15422,2.09086 31.679006,31.679006 0 0 0 7.5733,0.778 33.648308,33.648308 0 0 0 6.4063,-0.5835 q 2.99042,-0.5835 5.21502,-1.21562 a 28.311744,28.311744 0 0 0 3.64684,-1.31286 7.3666454,7.3666454 0 0 0 1.70186,-0.91172 l 7.29372,14.58742 c -0.6929,0.43762 -1.84774,1.04544 -3.46452,1.83558 a 46.97148,46.97148 0 0 1 -6.07808,2.34614 63.358012,63.358012 0 0 1 -8.50934,2.01794 62.47061,62.47061 0 0 1 -10.77036,0.86308 39.446806,39.446806 0 0 1 -13.71218,-2.3583 31.606068,31.606068 0 0 1 -18.6719,-17.8939 38.15825,38.15825 0 0 1 -2.73514,-14.87916 36.82107,36.82107 0 0 1 2.73514,-14.3686 32.384064,32.384064 0 0 1 7.57332,-11.0986 34.888238,34.888238 0 0 1 11.36602,-7.11136 38.389218,38.389218 0 0 1 14.10116,-2.5528 39.446806,39.446806 0 0 1 12.71538,1.90852 28.725054,28.725054 0 0 1 9.46966,5.15422 22.902244,22.902244 0 0 1 5.87144,7.45174 19.534982,19.534982 0 0 1 2.03008,8.61874 21.309784,21.309784 0 0 1 -1.70188,8.6795 14.76976,14.76976 0 0 1 -6.07808,6.52788 35.751326,35.751326 0 0 1 -11.88874,4.10878 104.45806,104.45806 0 0 1 -19.13384,1.44658 z m -1.04544,-13.5906 a 107.8861,107.8861 0 0 0 13.59062,-0.64428 28.287432,28.287432 0 0 0 7.17214,-1.70186 5.1420644,5.1420644 0 0 0 2.88102,-2.34614 7.1599902,7.1599902 0 0 0 0.52272,-2.61358 5.992997,5.992997 0 0 0 -2.49202,-4.76522 q -2.43124,-2.0301 -7.43958,-2.0301 a 14.186262,14.186262 0 0 0 -6.0781,1.21562 13.894514,13.894514 0 0 0 -4.37622,3.20924 13.566298,13.566298 0 0 0 -2.67436,4.49778 17.845272,17.845272 0 0 0 -1.10622,5.17854 z"
     class="cls-1" />
  <path
     style="stroke-width:1.21562"
     id="path847"
     d="m 617.43598,194.16092 a 28.129402,28.129402 0 0 1 2.1638,-11.36602 23.789646,23.789646 0 0 1 5.93222,-8.3513 25.600916,25.600916 0 0 1 9.14144,-5.16638 37.68416,37.68416 0 0 1 11.75502,-1.76264 34.876082,34.876082 0 0 1 12.15618,1.70186 18.307208,18.307208 0 0 1 6.33338,3.64686 10.685283,10.685283 0 0 1 1.83558,2.73514 8.3391398,8.3391398 0 0 1 0.64428,3.40372 11.135062,11.135062 0 0 1 -0.5835,3.64686 13.760796,13.760796 0 0 1 -1.43442,3.00258 21.26116,21.26116 0 0 1 -1.62894,2.22458 c -0.52272,0.6078 -0.9117,1.04544 -1.21562,1.31286 a 37.781408,37.781408 0 0 0 -5.34872,-1.9693 24.76214,24.76214 0 0 0 -6.92902,-0.9117 12.739678,12.739678 0 0 0 -8.42422,2.881 q -3.45236,2.8567 -3.45236,9.53046 v 37.21006 h -21.0302 z"
     class="cls-1" />
  <path
     style="stroke-width:1.21562"
     id="path849"
     d="m 676.58796,157.98414 a 14.149794,14.149794 0 0 1 0.79014,-4.95974 10.75822,10.75822 0 0 1 2.01792,-3.4645 8.5093262,8.5093262 0 0 1 2.88102,-2.09086 13.116518,13.116518 0 0 1 3.31864,-0.9725 72.134774,72.134774 0 0 1 7.2937,-0.98464 q 4.76524,-0.44978 14.02824,-0.44978 a 75.185976,75.185976 0 0 1 22.00268,3.00256 47.22676,47.22676 0 0 1 16.84848,8.87402 39.483274,39.483274 0 0 1 10.72174,14.42938 48.053382,48.053382 0 0 1 3.79274,19.65654 50.970864,50.970864 0 0 1 -3.5253,19.52284 37.68416,37.68416 0 0 1 -10.5151,14.49016 47.64007,47.64007 0 0 1 -17.37118,9.08066 83.537272,83.537272 0 0 1 -24.09354,3.12414 q -14.74546,0 -21.21254,-0.58348 c -4.31544,-0.389 -6.63728,-0.63214 -6.9898,-0.71722 z m 21.80818,58.62924 c 0.52272,0.0972 1.67756,0.1945 3.4645,0.32822 1.78696,0.13372 3.93862,0.1945 6.4671,0.1945 a 44.163404,44.163404 0 0 0 11.87658,-1.4952 24.72567,24.72567 0 0 0 9.20224,-4.70444 21.030192,21.030192 0 0 0 5.94436,-8.1568 30.098702,30.098702 0 0 0 2.09086,-11.75504 31.739786,31.739786 0 0 0 -1.70186,-10.57586 22.355216,22.355216 0 0 0 -5.15422,-8.36346 23.631614,23.631614 0 0 0 -8.75244,-5.48244 36.018762,36.018762 0 0 0 -12.47224,-1.95714 q -5.0813,0 -7.82858,0.1945 a 25.224074,25.224074 0 0 0 -3.1363,0.32822 z"
     class="cls-2" />
  <path
     style="stroke-width:1.21562"
     id="path851"
     d="m 793.7249,204.85836 q 0,13.57846 12.2656,13.59062 12.26558,0.0122 12.27774,-13.59062 v -26.2452 q 0,-5.08128 3.00256,-7.17214 a 13.65139,13.65139 0 0 1 7.9623,-2.09086 22.391684,22.391684 0 0 1 6.40632,0.85094 c 1.90852,0.55918 3.13628,0.93602 3.64684,1.1062 v 37.4775 a 29.575986,29.575986 0 0 1 -2.56494,12.72753 25.163294,25.163294 0 0 1 -6.9898,9.00773 30.244576,30.244576 0 0 1 -10.57588,5.42166 48.30866,48.30866 0 0 1 -26.37892,0 30.463388,30.463388 0 0 1 -10.57588,-5.42166 25.138982,25.138982 0 0 1 -6.97764,-9.00773 29.575986,29.575986 0 0 1 -2.5528,-12.72753 v -30.17164 q 0,-5.08128 3.00258,-7.17214 a 13.675702,13.675702 0 0 1 7.97446,-2.09086 22.367372,22.367372 0 0 1 6.39414,0.85094 c 1.90852,0.55918 3.1363,0.93602 3.64686,1.1062 z"
     class="cls-2" />
  <path
     style="stroke-width:1.21562"
     id="path853"
     d="m 913.85228,230.19184 c -0.96034,0.60782 -2.22458,1.3615 -3.79272,2.22458 a 35.751326,35.751326 0 0 1 -5.67694,2.43124 54.702812,54.702812 0 0 1 -7.63408,2.01792 49.050188,49.050188 0 0 1 -9.53046,0.8631 42.437226,42.437226 0 0 1 -13.65138,-2.22458 33.283622,33.283622 0 0 1 -11.56054,-6.60082 32.153098,32.153098 0 0 1 -7.96228,-10.94056 40.115396,40.115396 0 0 1 0,-30.2932 31.606068,31.606068 0 0 1 7.96228,-11.0378 35.107048,35.107048 0 0 1 11.75504,-6.78316 43.008566,43.008566 0 0 1 14.29566,-2.3583 46.691888,46.691888 0 0 1 12.99496,1.76266 20.957254,20.957254 0 0 1 9.06852,4.76522 12.25343,12.25343 0 0 1 2.28536,3.0755 8.156797,8.156797 0 0 1 0.85092,3.85352 10.186879,10.186879 0 0 1 -0.77798,4.048 13.566298,13.566298 0 0 1 -1.95716,3.25786 23.315554,23.315554 0 0 1 -2.43124,2.5528 13.49336,13.49336 0 0 1 -2.15164,1.62892 23.971988,23.971988 0 0 0 -6.52786,-4.37622 22.622652,22.622652 0 0 0 -9.9316,-2.01792 19.753794,19.753794 0 0 0 -6.4671,1.04542 15.000726,15.000726 0 0 0 -5.34871,3.12414 15.486974,15.486974 0 0 0 -3.64685,5.22716 17.82096,17.82096 0 0 0 -1.3615,7.1843 18.051928,18.051928 0 0 0 1.3615,7.3788 13.760796,13.760796 0 0 0 9.08066,7.90152 23.716708,23.716708 0 0 0 6.66158,0.91172 24.786452,24.786452 0 0 0 5.54322,-0.5835 32.213878,32.213878 0 0 0 4.50996,-1.37364 28.3239,28.3239 0 0 0 3.25784,-1.50738 8.4363892,8.4363892 0 0 0 1.70188,-1.1062 z"
     class="cls-2" />
  <path
     style="stroke-width:1.21562"
     id="path855"
     d="m 921.29186,148.93994 q 0,-5.0813 3.00258,-7.1843 a 13.74864,13.74864 0 0 1 7.9623,-2.09088 22.829306,22.829306 0 0 1 6.4063,0.85094 l 3.64686,1.10622 v 49.84034 c 1.56814,-1.30072 3.23354,-2.67436 5.0205,-4.09664 1.78696,-1.42228 3.5253,-2.86886 5.22716,-4.29114 1.70186,-1.42226 3.30648,-2.78376 4.86246,-4.03584 1.556,-1.2521 2.75946,-2.32184 3.7198,-3.18492 1.31286,-1.13052 2.43124,-2.11518 3.46452,-2.9418 a 15.24385,15.24385 0 0 1 6.58864,-3.19708 22.075624,22.075624 0 0 1 4.44916,-0.389 14.405074,14.405074 0 0 1 4.86248,0.778 18.027616,18.027616 0 0 1 3.91428,1.89636 16.398688,16.398688 0 0 1 2.88102,2.34615 11.803652,11.803652 0 0 1 1.68971,2.15165 q -2.43123,2.61358 -6.19965,5.87142 -3.76842,3.25786 -7.70702,6.44278 -3.97508,3.19708 -7.69486,6.0781 -3.7198,2.881 -6.0781,4.86246 a 202.81372,202.81372 0 0 1 16.38654,16.812 198.9602,198.9602 0 0 1 14.9521,19.29186 h -26.0507 c -1.73832,-2.34614 -3.64684,-4.75306 -5.73772,-7.19646 -2.09086,-2.44338 -4.23034,-4.86246 -6.39414,-7.0749 -2.1638,-2.21242 -4.31544,-4.42484 -6.4063,-6.47924 -2.09088,-2.0544 -3.9994,-3.9386 -5.73772,-5.68908 v 26.43968 h -21.0302 z"
     class="cls-2" />
  <circle
     style="stroke-width:1.21562"
     id="circle857"
     transform="rotate(-45)"
     r="81.665215"
     cy="196.43799"
     cx="-70.485489"
     class="cls-2" />
  <path
     style="stroke-width:1.21562"
     id="path859"
     d="m 71.064293,173.0821 a 33.41734,33.41734 0 0 1 7.111365,-20.04554 2.2866003,2.2866003 0 0 1 3.646854,2.75946 27.448656,27.448656 0 0 0 0,34.77884 2.297518,2.297518 0 0 1 -1.81127,3.64684 2.297518,2.297518 0 0 1 -1.835584,-0.9117 33.696932,33.696932 0 0 1 -7.135678,-20.2522"
     class="cls-3" />
  <path
     style="stroke-width:1.21562"
     id="path861"
     d="m 119.76196,194.24602 a 2.297518,2.297518 0 0 1 -1.82344,-3.64686 27.448656,27.448656 0 0 0 0,-34.77882 2.2866027,2.2866027 0 0 1 3.64686,-2.75946 32.01938,32.01938 0 0 1 0,40.29774 2.297518,2.297518 0 0 1 -1.82342,0.8874 z"
     class="cls-3" />
  <ellipse
     style="stroke-width:1.21562"
     id="ellipse863"
     ry="7.7191749"
     rx="3.7927279"
     cy="168.35335"
     cx="105.40549"
     class="cls-3" />
  <path
     style="stroke-width:1.21562"
     id="path865"
     d="m 133.96038,181.16596 a 2.285362,2.285362 0 0 1 -1.0819,-4.26682 l 6.41846,-3.70762 -6.41846,-3.64686 a 2.287335,2.287335 0 0 1 2.28536,-3.96292 l 9.8465,5.6891 a 2.2488934,2.2488934 0 0 1 1.14268,1.98146 2.2732058,2.2732058 0 0 1 -1.14268,1.98146 l -9.8465,5.67692 a 2.2002686,2.2002686 0 0 1 -1.20346,0.25528 z"
     class="cls-3" />
  <path
     style="stroke-width:1.21562"
     id="path867"
     d="M 108.33514,151.74802 H 89.809124 a 2.28537,2.28537 0 0 1 0,-4.57074 h 18.526016 a 2.28537,2.28537 0 0 1 0,4.57074 z"
     class="cls-3" />
  <path
     style="stroke-width:1.21562"
     id="path869"
     d="M 39.531162,198.36696 A 2.285362,2.285362 0 0 1 37.2458,196.0816 v -14.68466 a 2.285362,2.285362 0 0 1 3.987226,-1.53168 l 11.195842,12.44792 a 2.2896262,2.2896262 0 0 1 -3.40373,3.06336 l -7.196458,-8.02308 v 8.72814 a 2.297518,2.297518 0 0 1 -2.297518,2.28536 z"
     class="cls-3" />
  <path
     style="stroke-width:1.21562"
     id="path871"
     d="M 80.072022,200.7131 H 57.814056 a 2.224581,2.224581 0 1 1 0,-4.437 h 22.257966 a 2.224581,2.224581 0 1 1 0,4.437 z"
     class="cls-3" />
  <path
     style="stroke-width:1.21562"
     id="path873"
     d="M 101.2724,236.71972 H 68.30484 A 31.083354,31.083354 0 0 1 37.2458,205.67282 v -2.65004 a 2.224581,2.224581 0 1 1 4.449162,0 v 2.65004 a 26.634192,26.634192 0 0 0 26.609878,26.59772 h 32.96756 a 17.140214,17.140214 0 0 0 17.12806,-17.12804 v -15.29248 a 2.224581,2.224581 0 0 1 4.44916,0 v 15.29248 a 21.601532,21.601532 0 0 1 -21.57722,21.57722 z"
     class="cls-3" />
  <path
     style="stroke-width:1.21562"
     id="path875"
     d="M 93.614008,211.43486 H 76.692604 a 2.224581,2.224581 0 1 1 0,-4.437 h 16.921404 a 2.224581,2.224581 0 0 1 0,4.437 z"
     class="cls-3" />
  <path
     style="stroke-width:1.21562"
     id="path877"
     d="M 90.769462,218.65562 H 73.860214 a 2.224581,2.224581 0 1 1 0,-4.437 h 16.909248 a 2.224581,2.224581 0 1 1 0,4.437 z"
     class="cls-3" />
  <path
     style="stroke-width:1.21562"
     id="path879"
     d="M 87.523762,224.89174 H 70.602358 a 2.224581,2.224581 0 1 1 0,-4.437 h 16.921404 a 2.224581,2.224581 0 1 1 0,4.437 z"
     class="cls-3" />
</svg>
